<svg width="91" height="50" viewBox="0 0 91 50" fill="none" xmlns="http://www.w3.org/2000/svg">
<path d="M45.3087 11.9219C41.0028 4.76823 33.2776 0 24.4595 0C10.9507 0 0 11.1927 0 25C0 38.8073 10.9507 50 24.4595 50C33.2776 50 41.0028 45.2318 45.3087 38.0781C43.0181 34.2734 41.6983 29.7943 41.6983 25C41.6983 20.2057 43.0207 15.7266 45.3087 11.9219ZM24.4595 35.9453C18.5459 35.9453 13.7508 31.0443 13.7508 25C13.7508 18.9557 18.5459 14.0547 24.4595 14.0547C30.3731 14.0547 35.1682 18.9557 35.1682 25C35.1682 31.0443 30.3731 35.9453 24.4595 35.9453Z" fill="#1AB57A"/>
<path d="M66.1539 0C57.3357 0 49.6106 4.76823 45.3047 11.9219C47.5952 15.7266 48.915 20.2057 48.915 25C48.915 29.7943 47.5927 34.2734 45.3047 38.0781C49.608 45.2292 57.3357 50 66.1539 50C79.6626 50 90.6133 38.8073 90.6133 25C90.6133 11.1927 79.6626 0 66.1539 0Z" fill="#375769"/>
<path d="M45.3115 11.9214C43.021 15.7261 41.7012 20.2052 41.7012 24.9995C41.7012 29.7938 43.0235 34.273 45.3115 38.0776C47.602 34.273 48.9218 29.7938 48.9218 24.9995C48.9218 20.2052 47.5995 15.7261 45.3115 11.9214Z" fill="#002B3B"/>
</svg>
