<svg width="200" height="44" viewBox="0 0 200 44" fill="none" xmlns="http://www.w3.org/2000/svg">
<g clip-path="url(#clip0_181_451)">
<path d="M29.6611 7.62624C26.8422 3.05016 21.785 0 16.0123 0C7.16883 0 0 7.1598 0 15.9921C0 24.8244 7.16883 31.9842 16.0123 31.9842C21.785 31.9842 26.8422 28.9341 29.6611 24.358C28.1616 21.9242 27.2976 19.0589 27.2976 15.9921C27.2976 12.9253 28.1633 10.06 29.6611 7.62624ZM16.0123 22.9937C12.141 22.9937 9.0019 19.8585 9.0019 15.9921C9.0019 12.1257 12.141 8.99056 16.0123 8.99056C19.8836 8.99056 23.0226 12.1257 23.0226 15.9921C23.0226 19.8585 19.8836 22.9937 16.0123 22.9937Z" fill="#1AB57A"/>
<path d="M43.309 0C37.5362 0 32.479 3.05016 29.6602 7.62624C31.1596 10.06 32.0236 12.9253 32.0236 15.9921C32.0236 19.0589 31.158 21.9242 29.6602 24.358C32.4773 28.9324 37.5362 31.9842 43.309 31.9842C52.1524 31.9842 59.3212 24.8244 59.3212 15.9921C59.3212 7.1598 52.1524 0 43.309 0Z" fill="#375769"/>
<path d="M29.6604 7.62646C28.1609 10.0603 27.2969 12.9255 27.2969 15.9923C27.2969 19.0592 28.1625 21.9244 29.6604 24.3582C31.1598 21.9244 32.0238 19.0592 32.0238 15.9923C32.0238 12.9255 31.1582 10.0603 29.6604 7.62646Z" fill="#002B3B"/>
<path d="M161.868 9.67684C161.868 10.4731 161.581 11.0945 161.005 11.5376C160.43 11.9807 159.629 12.2023 158.602 12.2023C157.518 12.2023 156.689 11.9674 156.113 11.4993C155.538 11.0312 155.241 10.4148 155.223 9.65185H156.849C156.859 10.095 157.017 10.4431 157.326 10.693C157.635 10.9429 158.06 11.0695 158.602 11.0695C159.097 11.0695 159.494 10.9629 159.793 10.7496C160.091 10.5364 160.242 10.2249 160.242 9.81344C160.242 9.63352 160.195 9.46361 160.101 9.30869C160.008 9.1521 159.91 9.04548 159.808 8.98884C159.603 8.8739 159.361 8.76729 159.086 8.669C158.81 8.57072 158.504 8.46743 158.168 8.36082C157.72 8.22089 157.299 8.06763 156.907 7.89938C156.515 7.73113 156.238 7.58454 156.08 7.46126C155.902 7.32133 155.738 7.13309 155.59 6.89488C155.439 6.65666 155.366 6.34848 155.366 5.97033C155.366 5.20571 155.63 4.60434 156.158 4.16456C156.687 3.72477 157.431 3.50488 158.395 3.50488C159.359 3.50488 160.163 3.72811 160.702 4.17622C161.239 4.62433 161.526 5.2207 161.564 5.96867H159.966C159.938 5.57386 159.781 5.25569 159.496 5.01414C159.211 4.77259 158.844 4.65098 158.395 4.65098C157.946 4.65098 157.613 4.7576 157.336 4.97083C157.061 5.18405 156.922 5.49723 156.922 5.90703C156.922 6.06362 156.981 6.20855 157.097 6.34515C157.214 6.48008 157.333 6.58503 157.454 6.65999C157.584 6.73329 157.75 6.81325 157.945 6.89987C158.142 6.9865 158.375 7.07479 158.645 7.16474C159.037 7.29634 159.484 7.45293 159.985 7.63285C160.485 7.81442 160.832 7.97434 161.029 8.11261C161.299 8.29252 161.507 8.5274 161.653 8.8156C161.798 9.10379 161.869 9.39031 161.869 9.6785L161.868 9.67684Z" fill="#375769"/>
<path d="M164.906 11.9927V3.7251H170.851V4.90785H166.589V7.05179H170.472V8.23454H166.589V10.7966H170.991V11.991H164.906V11.9927Z" fill="#375769"/>
<path d="M181.472 7.85294C181.472 9.17562 181.13 10.2301 180.448 11.0197C179.766 11.8077 178.822 12.2025 177.616 12.2025C176.41 12.2025 175.464 11.8077 174.777 11.0197C174.09 10.2318 173.746 9.17562 173.746 7.85294C173.746 6.53026 174.09 5.47578 174.777 4.68617C175.464 3.89656 176.41 3.50342 177.616 3.50342C178.822 3.50342 179.766 3.89822 180.448 4.68617C181.13 5.47411 181.472 6.53026 181.472 7.85294ZM179.789 7.85294C179.789 6.87509 179.587 6.1038 179.187 5.53741C178.785 4.97103 178.261 4.68783 177.617 4.68783C176.974 4.68783 176.45 4.97103 176.048 5.53741C175.646 6.1038 175.446 6.87675 175.446 7.85294C175.446 8.82912 175.646 9.59375 176.048 10.1685C176.45 10.7432 176.974 11.0314 177.617 11.0314C178.261 11.0314 178.785 10.7432 179.187 10.1685C179.589 9.59375 179.789 8.82079 179.789 7.85294Z" fill="#375769"/>
<path d="M190.963 9.24571C190.963 10.1819 190.687 10.9082 190.135 11.4263C189.583 11.9444 188.781 12.2026 187.724 12.2026C186.666 12.2026 185.864 11.9444 185.312 11.4263C184.76 10.9082 184.484 10.1819 184.484 9.24571V3.7251H186.166V9.14742C186.166 9.77211 186.304 10.2419 186.579 10.5584C186.855 10.8749 187.236 11.0332 187.722 11.0332C188.207 11.0332 188.586 10.8749 188.858 10.5584C189.128 10.2419 189.265 9.77211 189.265 9.14742V3.7251H190.961V9.24571H190.963Z" fill="#375769"/>
<path d="M194.322 11.9927V3.7251H196.005V10.7966H200V11.991H194.322V11.9927Z" fill="#375769"/>
<path d="M162.272 23.2138C162.272 23.9368 162.022 24.5249 161.522 24.9763C161.021 25.4277 160.323 25.6543 159.425 25.6543H155.641V17.3867H159.412C160.244 17.3867 160.885 17.57 161.332 17.9348C161.78 18.2996 162.004 18.7877 162.004 19.3941C162.004 19.6489 161.945 19.9071 161.829 20.1703C161.712 20.4335 161.56 20.6468 161.373 20.8117C161.337 20.8367 161.273 20.88 161.185 20.9416C161.096 21.0033 160.94 21.0949 160.715 21.2182C160.79 21.2515 160.936 21.3181 161.157 21.4214C161.377 21.5247 161.518 21.6046 161.584 21.6613C161.789 21.8179 161.955 22.0428 162.081 22.3393C162.207 22.6341 162.269 22.9273 162.269 23.2138H162.272ZM160.408 19.6406C160.408 19.2291 160.303 18.941 160.092 18.7727C159.882 18.6045 159.544 18.5195 159.077 18.5195H157.269V20.7501H159.147C159.474 20.6434 159.765 20.5368 160.022 20.4302C160.279 20.3236 160.408 20.0604 160.408 19.6423V19.6406ZM160.589 23.1889C160.589 22.7291 160.478 22.3926 160.252 22.1777C160.029 21.9645 159.697 21.8578 159.257 21.8578H157.265V24.5065H159.397C159.77 24.3749 160.062 24.2417 160.273 24.1067C160.483 23.9718 160.588 23.6653 160.588 23.1889H160.589Z" fill="#375769"/>
<path d="M165.607 25.6524V17.3848H167.304V25.6524H165.607Z" fill="#375769"/>
<path d="M175.838 25.6524L173.413 21.9192L172.642 22.7571V25.6524H170.959V17.3848H172.642V20.8847L175.684 17.3848H177.661L174.52 20.7481L177.884 25.6524H175.838Z" fill="#375769"/>
<path d="M180.645 25.6524V17.3848H186.589V18.5675H182.327V20.7115H186.21V21.8942H182.327V24.4563H186.729V25.6507H180.645V25.6524Z" fill="#375769"/>
<path d="M65.2305 5.85708V17.588C65.2305 18.8757 66.2763 19.9201 67.5656 19.9201H83.0792V15.4357H77.68V8.00936H83.0792V3.5249H67.5656C66.2763 3.5249 65.2305 4.56939 65.2305 5.85708ZM73.1899 15.4357H69.7189V8.00936H73.1899V15.4374V15.4357Z" fill="#375769"/>
<path d="M96.0784 3.5249H89.048C87.7587 3.5249 86.7129 4.56939 86.7129 5.85708V25.9722H91.203V8.00936H96.0784V3.5249Z" fill="#375769"/>
<path d="M121.442 21.1729H96.666V25.6573H121.442V21.1729Z" fill="#375769"/>
<path d="M103.505 19.0672H116.939V14.9126H105.66V13.4283H116.939V5.85708C116.939 4.56939 115.893 3.5249 114.604 3.5249H101.17V7.67952H112.449V9.2754H103.505C102.216 9.2754 101.17 10.3199 101.17 11.6076V16.735C101.17 18.0227 102.216 19.0672 103.505 19.0672Z" fill="#375769"/>
<path d="M109.054 27.3931C104.47 27.3931 100.754 31.1046 100.754 35.6823C100.754 40.26 104.47 43.9716 109.054 43.9716C113.637 43.9716 117.353 40.26 117.353 35.6823C117.353 31.1046 113.637 27.3931 109.054 27.3931ZM109.054 39.4405C106.975 39.4405 105.291 37.758 105.291 35.6823C105.291 33.6067 106.975 31.9242 109.054 31.9242C111.132 31.9242 112.816 33.6067 112.816 35.6823C112.816 37.758 111.132 39.4405 109.054 39.4405Z" fill="#375769"/>
<path d="M146.219 3.5249H141.729V25.9722H146.219V3.5249Z" fill="#375769"/>
<path d="M130.544 3.5249C125.96 3.5249 122.244 7.2364 122.244 11.8141C122.244 16.3919 125.96 20.1034 130.544 20.1034C135.127 20.1034 138.844 16.3919 138.844 11.8141C138.844 7.2364 135.127 3.5249 130.544 3.5249ZM130.544 15.5723C128.466 15.5723 126.781 13.8898 126.781 11.8141C126.781 9.7385 128.466 8.056 130.544 8.056C132.622 8.056 134.307 9.7385 134.307 11.8141C134.307 13.8898 132.622 15.5723 130.544 15.5723Z" fill="#375769"/>
</g>
<defs>
<clipPath id="clip0_181_451">
<rect width="200" height="43.9716" fill="white"/>
</clipPath>
</defs>
</svg>
