<svg width="105" height="105" viewBox="0 0 105 105" fill="none" xmlns="http://www.w3.org/2000/svg">
<path d="M52.5 8.75C34.125 8.75 17.5 22.8375 17.5 44.625C17.5 59.15 29.1813 76.3438 52.5 96.25C75.8187 76.3438 87.5 59.15 87.5 44.625C87.5 22.8375 70.875 8.75 52.5 8.75ZM52.5 52.5C47.6875 52.5 43.75 48.5625 43.75 43.75C43.75 38.9375 47.6875 35 52.5 35C57.3125 35 61.25 38.9375 61.25 43.75C61.25 48.5625 57.3125 52.5 52.5 52.5Z" fill="#0D8F68"/>
<rect x="39.375" y="30.625" width="26.25" height="26.25" fill="#0D8F68"/>
<path d="M66.0187 39.375L62.3 29.1375C61.6656 27.4094 60.025 26.25 58.1875 26.25H52.5V30.625H58.1875L61.3812 39.375H50.8594L50.0719 37.1875H52.5V32.8125H41.5625V37.1875H45.3906L49.3719 48.125H47.9062C46.9437 43.2469 42.8531 39.6375 37.7344 39.3969C31.6094 39.0906 26.25 44.1875 26.25 50.3125C26.25 56.4375 31.0625 61.25 37.1875 61.25C42.5688 61.25 46.9219 57.5531 47.9062 52.5H57.0938C58.0563 57.3781 62.1469 60.9875 67.2656 61.2281C73.3906 61.5125 78.75 56.4375 78.75 50.2906C78.75 44.1656 73.9375 39.3531 67.8125 39.3531H66.0187V39.375ZM43.3563 52.5C42.4813 55.0594 40.0969 56.875 37.1875 56.875C33.5125 56.875 30.625 53.9875 30.625 50.3125C30.625 46.6375 33.5125 43.75 37.1875 43.75C40.0969 43.75 42.4813 45.5656 43.3563 48.125H37.1875V52.5H43.3563ZM57.0938 48.125H54.0312L52.4344 43.75H59.0625C58.1 45.0187 57.4 46.4844 57.0938 48.125ZM67.8125 56.875C64.1375 56.875 61.25 53.9875 61.25 50.3125C61.25 48.2781 62.1469 46.5281 63.5469 45.325L65.6469 51.1L69.7594 49.6125L67.6375 43.7719C67.7031 43.7719 67.7687 43.75 67.8344 43.75C71.5094 43.75 74.3969 46.6375 74.3969 50.3125C74.3969 53.9875 71.4875 56.875 67.8125 56.875Z" fill="white"/>
</svg>
