<svg width="101" height="28" viewBox="0 0 101 28" fill="none" xmlns="http://www.w3.org/2000/svg">
<path d="M25.1704 12.1932C26.2516 9.41211 28.5264 6.81687 29.2414 6.20368C29.2946 6.15412 29.3536 6.11077 29.4068 6.06122L14.3044 6.04883C11.2438 6.06122 8.25992 6.97791 5.73695 8.79272C4.54341 9.65367 3.39714 10.7004 2.51676 11.9144C1.6541 13.1037 1.05143 14.5221 0.590556 15.9281C-0.124385 18.3747 -0.00621323 21.2115 1.31731 23.4103C1.96135 24.4756 2.87719 25.3366 3.92301 25.956C4.89793 26.5382 6.03829 27.0213 7.15502 27.201C7.19047 27.201 8.43718 27.4673 10.0502 27.4673H10.6765L14.4344 22.0167L12.455 22.06C11.551 22.06 10.6529 22.06 9.7548 21.9795C8.98077 21.9114 8.18902 21.7565 7.51544 21.3353C6.33963 20.5921 6.10328 19.025 6.29236 17.7057C6.75914 14.423 9.80207 12.2056 12.7564 11.6481C13.8849 11.4375 15.0371 11.4994 16.1775 11.5056C17.371 11.5118 17.9855 11.5056 19.1731 11.5056C18.5586 13.0789 17.9441 14.6521 17.3237 16.2254L17.3119 16.2502C16.916 17.266 16.5142 18.2879 16.1125 19.3037C15.6339 20.5239 15.1553 21.7441 14.6826 22.9581C14.6708 22.9829 14.6589 23.0139 14.6471 23.0387L14.4817 23.466C14.1567 24.4323 14.0976 25.6153 14.7121 26.4391C15.1553 27.0399 15.8525 27.331 16.5497 27.3992H23.7582L25.7612 22.1963H21.702C21.3179 22.1963 21.4479 21.8123 21.4657 21.7565C22.0388 20.2638 23.9355 15.3644 25.1704 12.187" fill="#F58220"/>
<path d="M44.6326 21.2168L48.5205 10.6934H51.8765L54.8722 6.26477C55.0613 5.98605 54.9549 5.75068 54.6477 5.75068H50.423L52.5856 0.00275284H48.1187C48.0773 -0.00344105 48.0064 0.00275284 47.8941 0.00275284C47.3683 -0.00963493 46.0329 0.26909 45.058 2.24494L37.1878 23.2174C37.1641 23.2732 36.9514 23.8121 36.8746 24.4996C36.8096 25.0942 36.851 25.8189 37.2468 26.4135C37.6427 27.0081 38.3872 27.4355 39.628 27.4788H47.7051L49.6313 22.0034H44.928C44.3017 21.9601 44.6267 21.2168 44.6267 21.2168" fill="#F58220"/>
<path d="M42.5829 0.00275284H38.0865C38.051 -0.00344105 37.9742 0.00275284 37.8678 0.00275284C37.3361 -0.00963494 36.0066 0.26909 35.0494 2.24494L25.7375 26.2586C25.7079 26.3206 25.637 26.4692 25.6134 26.686C25.6016 26.8471 25.637 27.0762 25.8025 27.2435C25.9679 27.4107 26.1924 27.4664 26.4583 27.4664H33.011L32.9164 26.94C32.8633 26.6551 32.8455 26.4135 32.8633 26.1905C32.8751 25.9613 32.9283 25.7631 32.9992 25.5773L42.5829 0.00275284Z" fill="#F58220"/>
<path d="M99.73 14.516L97.0357 21.9982L95.7417 25.5968C95.6649 25.7826 95.6236 25.9809 95.6058 26.21C95.594 26.4268 95.6117 26.6746 95.6708 26.9595L95.7772 27.486H89.2186C88.9586 27.486 88.7282 27.424 88.5569 27.263C88.3855 27.0958 88.3501 26.8604 88.3619 26.7055C88.3737 26.4888 88.4446 26.3401 88.4801 26.2782L89.1655 24.5253L92.4034 15.9529C92.4034 15.9529 92.5097 15.668 92.6338 15.253C92.7579 14.8381 92.8938 14.2992 92.947 13.8346C92.9765 13.5559 92.9765 13.3082 92.947 13.1285C92.8229 12.4658 92.5865 11.9827 91.6884 11.7349C91.6884 11.7349 90.6721 11.5305 89.6618 11.5243H85.7975L79.9303 27.4922H73.0586L81.0943 5.75781H94.4714C98.2824 5.75781 99.5646 8.37163 99.6355 8.56984C99.6355 8.56984 100.888 11.035 99.7123 14.5222" fill="#F58220"/>
<path d="M75.4697 12.2974C75.5938 10.7737 75.2688 9.21289 74.3884 8.04844C73.514 6.89637 72.1845 6.21505 70.796 5.93632C69.1239 5.60185 67.4281 5.66379 65.6673 5.78147C64.1075 5.88058 62.3821 6.0602 60.84 6.75391C57.9389 8.06082 55.4986 10.6932 54.1396 13.6601C53.6965 14.4467 53.3124 15.2643 52.9638 16.1005C52.6152 16.9367 52.2548 17.7728 51.983 18.6338C51.4749 20.2566 51.3744 22.0157 51.853 23.5827C52.2607 24.9144 53.147 26.0169 54.3346 26.6363C55.7232 27.3548 57.2417 27.4291 58.902 27.4725C60.4855 27.5096 62.0631 27.5592 63.6525 27.3734C65.2478 27.1875 66.7781 26.6982 68.1667 25.7506C69.1652 25.0692 70.0751 24.2516 70.8019 23.2606C71.57 22.2139 72.2259 21.068 72.8404 19.9159C74.1048 17.5437 75.257 14.9794 75.4697 12.3036M60.7691 22.1457C59.6642 22.0466 57.9861 22.3006 57.5844 20.9193C57.3776 20.2132 57.6553 19.4204 57.8975 18.7329C58.187 17.9091 58.5179 17.0915 58.8724 16.2925C59.5047 14.8307 60.2964 13.4123 61.5077 12.3656C62.1104 11.8391 62.8017 11.4179 63.558 11.2321C64.3497 11.0401 65.1533 11.0834 65.945 11.0896C67.1445 11.102 68.9939 11.0896 69.3957 12.5266C69.7384 13.7406 69.0352 15.2519 68.5803 16.3978C67.9599 17.9339 67.1799 19.5443 66.0218 20.7397C65.4605 21.3095 64.8342 21.7245 64.0897 21.9227C63.2803 22.1333 62.4294 22.1395 61.614 22.1519C61.3363 22.1519 61.0645 22.1519 60.7868 22.1519" fill="#F58220"/>
</svg>
