<svg width="132" height="21" viewBox="0 0 132 21" fill="none" xmlns="http://www.w3.org/2000/svg">
<path d="M109.005 16.0168L108.751 0.625H113.383V20.0304H106.724L102.103 4.11216H102.003L102.263 20.0304H97.6602V0.625H104.603L108.904 16.0168H109.005Z" fill="#184594"/>
<path d="M24.8349 2.43981L22.2765 20.2348H17.2188L20.6871 0.625H29.0064L32.457 20.2348H27.4288L24.9354 2.43981H24.8349Z" fill="#184594"/>
<path d="M46.6437 15.6204L48.954 0.625H56.582L56.9956 20.2348H52.316L52.1919 2.60704H52.0915L48.9658 20.2348H44.2212L41.0955 2.60704H40.9892L40.871 20.2348H36.1914L36.605 0.625H44.233L46.5433 15.6204H46.6437Z" fill="#184594"/>
<path d="M9.34976 14.7043C9.53293 15.1812 9.47384 15.7882 9.38521 16.1599C9.23159 16.8102 8.80617 17.473 7.55945 17.473C6.38955 17.473 5.67461 16.7669 5.67461 15.6953V13.7938H0.658203V15.3051C0.658203 19.678 3.93748 20.9973 7.4531 20.9973C10.9687 20.9973 13.6217 19.7895 14.0648 16.5129C14.2894 14.822 14.1239 13.7133 14.0471 13.2983C13.2553 9.18554 6.15911 7.96534 5.63325 5.66741C5.53871 5.271 5.56235 4.85601 5.60961 4.63922C5.7396 4.01364 6.1473 3.32612 7.3172 3.32612C8.4162 3.32612 9.05433 4.03222 9.05433 5.10376V6.31777H13.7221V4.93653C13.728 0.66894 10.0706 0 7.42356 0C4.09701 0 1.37905 1.15206 0.88273 4.3543C0.746832 5.22764 0.729106 6.01427 0.929999 6.99909C1.73948 11.0065 8.38666 12.1648 9.34976 14.7043Z" fill="#184594"/>
<path d="M70.1674 14.6676C70.3446 15.1383 70.2915 15.7391 70.2028 16.1046C70.0492 16.7488 69.6297 17.4053 68.3948 17.4053C67.2367 17.4053 66.5336 16.7054 66.5336 15.6462V13.7633H61.5645V15.2622C61.5645 19.5917 64.8142 20.8987 68.2944 20.8987C71.7745 20.8987 74.3979 19.7032 74.8411 16.4576C75.0656 14.7853 74.9002 13.689 74.8175 13.2802C74.0375 9.21079 67.0063 8.00298 66.4863 5.72363C66.3977 5.33342 66.4154 4.92462 66.4627 4.70783C66.5927 4.08225 66.9945 3.40092 68.1525 3.40092C69.2397 3.40092 69.8719 4.10083 69.8719 5.16618V6.3678H74.4984V5.00514C74.4984 0.774716 70.8764 0.118164 68.253 0.118164C64.9619 0.118164 62.2735 1.25784 61.7772 4.42911C61.6413 5.29006 61.6235 6.07049 61.8244 7.04912C62.628 11.0194 69.2102 12.1653 70.1615 14.68L70.1674 14.6676Z" fill="#184594"/>
<path d="M85.8716 17.2993C87.1715 17.2993 87.5733 16.364 87.6678 15.8747C87.7092 15.6641 87.7151 15.3792 87.7092 15.1252V0.619141H92.442V14.6855C92.4479 15.0447 92.4124 15.7818 92.3947 15.9738C92.0697 19.6344 89.3104 20.8174 85.8657 20.8174C82.421 20.8174 79.6676 19.6282 79.3367 15.9738C79.319 15.7818 79.2835 15.0447 79.2953 14.6855V0.619141H84.0281V15.1314C84.0281 15.3854 84.0281 15.6703 84.0754 15.8809C84.164 16.3702 84.5658 17.3055 85.8716 17.3055V17.2993Z" fill="#184594"/>
<path d="M124.893 17.096C126.246 17.096 126.725 16.1917 126.807 15.6714C126.843 15.4484 126.855 15.1759 126.855 14.9281V12.0851H124.934V9.22354H131.558V14.4822C131.558 14.8476 131.546 15.1201 131.493 15.7705C131.186 19.3382 128.231 20.6141 124.917 20.6141C121.602 20.6141 118.648 19.3382 118.335 15.7705C118.275 15.1139 118.27 14.8476 118.27 14.4822V6.2257C118.27 5.87884 118.311 5.26565 118.352 4.93737C118.772 1.27059 121.602 0.09375 124.917 0.09375C128.231 0.09375 131.138 1.26439 131.487 4.93737C131.546 5.56295 131.528 6.2257 131.528 6.2257V6.87606H126.813V5.77974C126.813 5.77974 126.813 5.3152 126.754 5.03028C126.672 4.59671 126.317 3.60568 124.887 3.60568C123.457 3.60568 123.126 4.54715 123.026 5.03028C122.973 5.29042 122.949 5.63728 122.949 5.95936V14.9219C122.949 15.1697 122.955 15.4422 122.991 15.6652C123.073 16.1855 123.552 17.0898 124.899 17.0898L124.893 17.096Z" fill="#184594"/>
</svg>
