<svg width="122" height="30" viewBox="0 0 122 30" fill="none" xmlns="http://www.w3.org/2000/svg">
<path d="M10.1992 9.17787C8.39117 8.30101 6.89653 7.58281 6.89653 6.14642C6.89653 5.04407 7.74831 4.25072 9.41974 4.25072C10.0305 4.25072 10.5367 4.31752 11.059 4.41774C11.3322 4.46784 11.6215 4.5096 11.8626 4.5096C13.3251 4.5096 14.1447 3.60768 14.6912 1.88735L14.9242 1.18586C14.6912 1.08565 12.3046 0 9.19474 0C4.24475 0 1.63315 3.29869 1.64118 6.71429C1.64118 8.44297 2.1635 9.69564 2.97511 10.6811C4.02779 11.9421 5.51439 12.7772 6.92064 13.487C8.96171 14.5309 10.8019 15.2909 10.8019 16.8358C10.8019 18.2054 9.44385 18.9821 7.62778 18.9821C5.13671 18.9821 2.96707 17.5039 2.67779 17.3202L0.636719 21.3037C1.00636 21.5125 3.63404 23.2495 7.96528 23.2495C12.5858 23.2495 16.0894 20.4936 16.0894 16.2596C16.0894 12.0256 12.8429 10.4806 10.2153 9.16117" fill="#CE0E2D"/>
<path d="M28.2622 11.1483L36.6354 0.475586H30.6648L23.9791 9.68686H23.8827V0.475586H18.9648V23.0904H19.2622C21.3836 23.0904 23.9229 22.0716 23.9229 18.372V13.1776H24.0273L30.8336 22.8065H37.0934L28.2622 11.1483Z" fill="#CE0E2D"/>
<g style="mix-blend-mode:multiply">
<path d="M117.359 17.4056V10.536H120.169L121.157 7.88439H117.359V3.73242C117.359 3.73242 117.062 3.73242 117.044 3.73242C115.545 3.73242 114.001 4.4024 114.001 7.84664V7.88439H111.514V10.536H114.001V18.6323C114.001 20.9159 115.285 22.1049 117.116 22.1049C118.598 22.1049 120.51 21.6331 120.51 18.5474C120.384 18.6229 119.675 19.1136 118.885 19.1136C117.79 19.1136 117.359 18.4058 117.359 17.4056Z" fill="#EE7623"/>
</g>
<g style="mix-blend-mode:multiply">
<path d="M101.218 13.5044C101.218 11.9476 102.286 10.5112 103.77 10.5112C105.444 10.5112 106.358 11.9939 106.385 13.5044H101.218ZM103.824 7.90723C100.584 7.90723 97.8516 10.6039 97.8516 15.0149C97.8516 19.426 100.503 22.1041 104.467 22.1041C107.625 22.1041 109.245 20.6955 109.453 20.5751C109.453 20.5751 109.145 20.0561 109.054 19.9171C108.62 19.1758 108.113 18.9348 107.552 18.9348C106.439 18.9348 106.294 19.4167 104.783 19.4167C102.195 19.4167 101.29 17.3409 101.227 15.9694H109.905V14.9408C109.905 10.7058 107.525 7.9165 103.833 7.9165" fill="#EE7623"/>
</g>
<g style="mix-blend-mode:multiply">
<path d="M63.45 17.858V3.30344C63.45 1.66617 62.406 0.390625 60.804 0.390625H60.084V19.2859C60.084 21.0279 61.101 22.1035 62.874 22.1035C65.061 22.1035 65.709 20.4567 65.709 18.9146C65.619 18.9622 65.16 19.1621 64.692 19.1621C63.909 19.1621 63.45 18.6862 63.45 17.858Z" fill="#EE7623"/>
</g>
<g style="mix-blend-mode:multiply">
<path d="M76.2793 18.3652C76.0588 18.4855 75.1401 19.3277 73.762 19.3277C72.5769 19.3277 71.6673 18.6058 71.6673 17.4119C71.6673 16.3939 72.6412 15.5147 74.497 15.5147H76.2701V18.3652H76.2793ZM76.5641 20.4197C76.803 21.0398 77.3818 21.7802 78.5853 21.7802C79.2192 21.7802 80.046 21.6136 80.1746 21.5581C80.0736 21.1694 79.7612 20.1051 79.7612 17.7173V12.9604C79.7612 9.42502 77.5012 7.90723 74.0101 7.90723C71.0702 7.90723 68.9755 9.32322 68.7274 9.4898C68.7274 9.4898 68.8653 9.73968 68.9663 9.91552C69.2511 10.4153 69.5175 11.1557 70.3811 11.1557C71.2447 11.1557 71.9705 10.4986 73.6058 10.4986C75.3973 10.4986 76.2793 11.3685 76.2793 12.7105V13.201H75.1493C70.5465 13.201 68.1211 14.9964 68.1211 17.8654C68.1211 20.4105 70.0504 22.1041 72.6963 22.1041C75.3422 22.1041 76.3436 20.6233 76.5641 20.429" fill="#EE7623"/>
</g>
<g style="mix-blend-mode:multiply">
<path d="M49.1787 13.4738C48.3179 13.4738 47.6977 13.3171 47.4848 13.2711V5.09508C47.6792 5.05821 48.2809 4.88308 49.1787 4.88308C51.2799 4.88308 53.122 6.23806 53.122 9.17846C53.122 12.1189 51.4743 13.4831 49.1787 13.4831M49.6323 2.07172C46.6425 2.07172 44.4024 2.80912 44.0137 2.92895V22.9403H44.5691C46.1704 22.9403 47.5033 21.8803 47.5033 19.7602V15.9995C47.6052 16.0271 48.6511 16.3129 49.873 16.3129C53.6218 16.3129 56.8708 13.99 56.8708 9.07707C56.8708 4.9476 54.205 2.0625 49.6323 2.0625" fill="#EE7623"/>
</g>
<g style="mix-blend-mode:multiply">
<path d="M82.9679 12.7196V22.1051H86.4514V12.3495C86.6387 12.1692 87.8748 10.9734 89.2513 10.9734C91.0399 10.9734 91.967 12.283 91.967 13.9912V22.0956H95.4411V13.1182C95.4411 8.8477 92.2011 7.9082 90.3938 7.9082C88.2213 7.9082 86.6762 9.30322 86.2173 9.75873C86.0675 9.18934 85.4026 8.22137 83.8856 8.22137C83.3519 8.22137 82.6495 8.3827 82.584 8.40168C82.687 8.93311 82.9773 10.1858 82.9773 12.7196" fill="#EE7623"/>
</g>
</svg>
