<svg width="110" height="28" viewBox="0 0 110 28" fill="none" xmlns="http://www.w3.org/2000/svg">
<path d="M26.8519 13.7814C26.8519 21.3937 20.961 27.5628 13.7111 27.5628C6.46129 27.5628 0.558594 21.3937 0.558594 13.7814C0.558594 6.16911 6.44356 0 13.7052 0C20.9669 0 26.846 6.16911 26.846 13.7814H26.8519Z" fill="white"/>
<path d="M13.704 26.8698C20.623 26.8698 26.2303 20.9856 26.2303 13.7388C26.2303 6.49195 20.623 0.601562 13.704 0.601562C6.78505 0.601562 1.17188 6.47956 1.17188 13.7388C1.17188 20.998 6.77914 26.876 13.704 26.876V26.8698Z" fill="#007BC7"/>
<mask id="mask0_18_2571" style="mask-type:luminance" maskUnits="userSpaceOnUse" x="1" y="0" width="26" height="27">
<path d="M13.706 26.8679C20.625 26.8679 26.2322 20.9837 26.2322 13.7368C26.2322 6.49 20.625 0.599609 13.706 0.599609C6.787 0.599609 1.17383 6.47761 1.17383 13.7368C1.17383 20.9961 6.78109 26.8741 13.706 26.8741V26.8679Z" fill="white"/>
</mask>
<g mask="url(#mask0_18_2571)">
<path d="M13.7533 20.072C19.2602 20.072 23.9811 21.6762 26.0019 23.9679C26.6814 22.339 27.0536 20.5365 27.0536 18.6536C27.0536 11.1156 21.0977 5.01465 13.7533 5.01465C6.42077 5.00846 0.458984 11.1156 0.458984 18.6536C0.458984 20.5427 0.831226 22.3328 1.51072 23.9679C3.52555 21.6824 8.25243 20.072 13.7533 20.072Z" fill="#007BC7"/>
<path d="M13.7531 20.0836C19.2422 20.0836 23.9513 21.6754 25.9662 23.9486C26.6457 22.332 27.012 20.5419 27.012 18.6714C27.012 11.1953 21.068 5.11914 13.7472 5.11914C6.43234 5.12533 0.488281 11.2015 0.488281 18.6776C0.488281 20.5481 0.860523 22.332 1.54001 23.9486C3.54894 21.6816 8.264 20.0836 13.7531 20.0836Z" fill="#007DC8"/>
<path d="M13.7528 20.0964C19.2301 20.0964 23.9274 21.6759 25.9363 23.9305C26.6099 22.3262 26.9822 20.5548 26.9822 18.6966C26.9822 11.2825 21.0558 5.2373 13.7528 5.2373C6.44977 5.2373 0.523438 11.2887 0.523438 18.7028C0.523438 20.561 0.89568 22.3262 1.56926 23.9305C3.57819 21.6821 8.27553 20.0964 13.7528 20.0964Z" fill="#007FCA"/>
<path d="M13.7525 20.1152C19.218 20.1152 23.8976 21.6822 25.9065 23.9182C26.5801 22.3264 26.9523 20.5673 26.9523 18.7277C26.9523 11.3756 21.0378 5.35514 13.7584 5.36133C6.4672 5.35514 0.558594 11.3694 0.558594 18.7277C0.558594 20.5673 0.930836 22.3202 1.60442 23.912C3.60743 21.6822 8.29296 20.109 13.7584 20.109L13.7525 20.1152Z" fill="#0080CB"/>
<path d="M13.7483 20.1264C19.196 20.1264 23.8697 21.6811 25.8728 23.8985C26.5463 22.3191 26.9127 20.5786 26.9127 18.7514C26.9127 11.455 21.0159 5.47168 13.7483 5.47168C6.48663 5.47168 0.589844 11.455 0.589844 18.7514C0.589844 20.5786 0.962086 22.3129 1.62976 23.8923C3.62687 21.6749 8.30057 20.1202 13.7483 20.1202V20.1264Z" fill="#0082CC"/>
<path d="M13.7481 20.1465C19.184 20.1465 23.8459 21.6887 25.8371 23.8814C26.5106 22.3143 26.877 20.5862 26.877 18.7776C26.877 11.5431 20.9979 5.59082 13.7481 5.59082C6.50411 5.59082 0.619141 11.5431 0.619141 18.7776C0.619141 20.5862 0.985474 22.3143 1.65905 23.8752C3.65025 21.6825 8.31214 20.1403 13.7481 20.1403V20.1465Z" fill="#0084CD"/>
<path d="M13.7478 20.158C19.1719 20.158 23.816 21.6879 25.8072 23.8682C26.4749 22.3135 26.8412 20.604 26.8412 18.8077C26.8412 11.6352 20.974 5.70768 13.7478 5.71387C6.52154 5.70768 0.654297 11.629 0.654297 18.8077C0.654297 20.604 1.02063 22.3135 1.6883 23.8682C3.67359 21.6879 8.32367 20.158 13.7478 20.158Z" fill="#0086CF"/>
<path d="M13.7475 20.1706C19.1539 20.1706 23.7921 21.6881 25.7715 23.8435C26.4392 22.3013 26.8055 20.6041 26.8055 18.8265C26.8055 11.7159 20.956 5.81934 13.7475 5.81934C6.53902 5.81934 0.683594 11.7159 0.683594 18.8327C0.683594 20.6165 1.04993 22.3075 1.7176 23.8497C3.69698 21.6881 8.33524 20.1768 13.7416 20.1768L13.7475 20.1706Z" fill="#0088D0"/>
<path d="M13.7413 20.1903C19.1359 20.1903 23.7564 21.6954 25.7358 23.8323C26.4035 22.3086 26.7639 20.6239 26.7639 18.8586C26.7639 11.8038 20.9321 5.94434 13.7413 5.94434C6.55645 5.93815 0.71875 11.8038 0.71875 18.8586C0.71875 20.6239 1.08508 22.3024 1.74685 23.8323C3.72032 21.6892 8.35267 20.1903 13.7413 20.1903Z" fill="#008AD1"/>
<path d="M13.7411 20.2015C19.1179 20.2015 23.7325 21.6943 25.706 23.8126C26.3678 22.3013 26.7341 20.6289 26.7341 18.8822C26.7341 11.8893 20.9141 6.05469 13.7411 6.05469C6.56802 6.05469 0.748047 11.8893 0.748047 18.8822C0.748047 20.6351 1.11438 22.3013 1.77614 23.8126C3.74371 21.6881 8.36424 20.2015 13.7411 20.2015Z" fill="#008CD3"/>
<path d="M13.7427 20.2134C19.1077 20.2134 23.7105 21.6876 25.6781 23.7935C26.3399 22.2946 26.7003 20.6408 26.7003 18.9065C26.7003 11.9755 20.898 6.17188 13.7427 6.17188C6.59331 6.17187 0.785156 11.9755 0.785156 18.9065C0.785156 20.6408 1.15149 22.2946 1.80734 23.7935C3.77491 21.6876 8.37771 20.2134 13.7368 20.2134H13.7427Z" fill="#008ED4"/>
<path d="M13.7346 20.2325C19.0819 20.2325 23.6729 21.6942 25.6346 23.7816C26.2963 22.295 26.6567 20.6537 26.6567 18.9318C26.6567 12.0627 20.8663 6.29004 13.7346 6.29004C6.60293 6.29004 0.8125 12.0627 0.8125 18.938C0.8125 20.6599 1.17292 22.295 1.83469 23.7816C3.79635 21.6942 8.38733 20.2325 13.7346 20.2325Z" fill="#0090D5"/>
<path d="M13.7343 20.2453C19.0698 20.2453 23.649 21.6947 25.6047 23.7635C26.2606 22.2893 26.621 20.6665 26.621 18.9632C26.621 12.1499 20.8483 6.4082 13.7343 6.4082C6.62036 6.4082 0.847656 12.1499 0.847656 18.9632C0.847656 20.6665 1.20808 22.2955 1.86394 23.7635C3.81968 21.6947 8.39885 20.2453 13.7343 20.2453Z" fill="#0092D7"/>
<path d="M13.736 20.2566C19.0597 20.2566 23.6211 21.6936 25.5769 23.7438C26.2327 22.282 26.5932 20.6716 26.5932 18.9807C26.5932 12.2293 20.8382 6.51855 13.736 6.51855C6.6398 6.51855 0.878906 12.2355 0.878906 18.9868C0.878906 20.6778 1.23933 22.2882 1.89519 23.7438C3.84503 21.6936 8.41238 20.2566 13.7301 20.2566H13.736Z" fill="#0094D8"/>
<path d="M13.7357 20.2757C19.0417 20.2757 23.5972 21.7003 25.5411 23.7318C26.197 22.2825 26.5515 20.6845 26.5515 19.0121C26.5515 12.3227 20.8083 6.63672 13.7298 6.63672C6.65723 6.63672 0.914062 12.3227 0.914062 19.0121C0.914062 20.6845 1.27449 22.2825 1.92443 23.7318C3.86836 21.7003 8.4239 20.2757 13.7298 20.2757H13.7357Z" fill="#0097D9"/>
<path d="M13.7296 20.2885C19.0237 20.2885 23.5674 21.7007 25.5054 23.7137C26.1613 22.2768 26.5158 20.6973 26.5158 19.0374C26.5158 12.4099 20.7904 6.75488 13.7296 6.75488C6.67471 6.75488 0.943359 12.4099 0.943359 19.0374C0.943359 20.6973 1.30378 22.2768 1.95373 23.7137C3.89175 21.7007 8.43547 20.2885 13.7296 20.2885Z" fill="#0099DB"/>
<path d="M13.7293 20.2994C19.0116 20.2994 23.5376 21.6993 25.4756 23.6937C26.1255 22.2691 26.486 20.702 26.486 19.0607C26.486 12.4889 20.7782 6.87109 13.7352 6.87109C6.69214 6.87109 0.978516 12.4951 0.978516 19.0607C0.978516 20.702 1.33894 22.2691 1.98889 23.6937C3.921 21.6993 8.4529 20.2994 13.7293 20.2994Z" fill="#009BDC"/>
<path d="M13.729 20.3195C18.9936 20.3195 23.5137 21.7069 25.4399 23.6828C26.0898 22.2706 26.4444 20.7221 26.4444 19.0931C26.4444 12.5833 20.7485 6.99023 13.729 6.99023C6.70961 6.99023 1.00781 12.5833 1.00781 19.0869C1.00781 20.7159 1.36233 22.2706 2.01228 23.6766C3.93848 21.7007 8.45856 20.3133 13.7231 20.3133L13.729 20.3195Z" fill="#009DDD"/>
<path d="M13.7228 20.3333C18.9756 20.3333 23.4779 21.7022 25.4041 23.6656C26.0541 22.272 26.4086 20.7297 26.4086 19.1193C26.4086 12.6715 20.7304 7.10938 13.7228 7.10938C6.72705 7.10319 1.04297 12.6715 1.04297 19.1193C1.04297 20.7297 1.39749 22.272 2.04743 23.6656C3.97364 21.7084 8.47599 20.3333 13.7287 20.3333H13.7228Z" fill="#009FDF"/>
<path d="M13.7245 20.3488C18.9596 20.3488 23.456 21.7053 25.3763 23.644C26.0203 22.2627 26.3749 20.739 26.3749 19.141C26.3749 12.7551 20.7144 7.21777 13.7245 7.21777C6.73466 7.21777 1.07422 12.7551 1.07422 19.141C1.07422 20.739 1.42874 22.2627 2.07277 23.644C3.99307 21.7053 8.48952 20.3488 13.7245 20.3488Z" fill="#00A2E0"/>
<path d="M13.7242 20.3627C18.9475 20.3627 23.4321 21.7067 25.3406 23.6268C25.9846 22.258 26.3391 20.7467 26.3391 19.1672C26.3391 12.8371 20.6905 7.33691 13.7242 7.33691C6.758 7.33691 1.10938 12.8371 1.10938 19.1672C1.10938 20.7467 1.46389 22.258 2.10793 23.6268C4.02232 21.7067 8.50695 20.3627 13.7242 20.3627Z" fill="#00A4E1"/>
<path d="M13.724 20.3749C18.9295 20.3749 23.4023 21.7066 25.3108 23.6081C25.9548 22.2516 26.3034 20.7527 26.3034 19.1857C26.3034 12.9174 20.6725 7.44824 13.724 7.44824C6.78139 7.45444 1.13867 12.9236 1.13867 19.1919C1.13867 20.7589 1.49319 22.2578 2.13132 23.6081C4.0398 21.7066 8.51261 20.3749 13.7181 20.3749H13.724Z" fill="#00A6E3"/>
<path d="M13.7178 20.3939C18.9115 20.3939 23.3725 21.7132 25.275 23.5962C25.9191 22.2521 26.2677 20.7718 26.2677 19.2171C26.2677 13.0108 20.6486 7.56641 13.7237 7.56641C6.79882 7.56641 1.17383 13.0108 1.17383 19.2171C1.17383 20.7718 1.52834 22.2521 2.16647 23.5962C4.06904 21.7132 8.53004 20.3939 13.7237 20.3939H13.7178Z" fill="#00A9E4"/>
<path d="M13.7175 20.4068C18.8994 20.4068 23.3427 21.7137 25.2393 23.5781C25.8775 22.2464 26.2261 20.7784 26.2261 19.2424C26.2261 13.098 20.6247 7.68457 13.7116 7.68457C6.79857 7.68457 1.20312 13.098 1.20312 19.2486C1.20312 20.7846 1.55764 22.2526 2.18986 23.5843C4.08652 21.7199 8.5357 20.413 13.7116 20.413L13.7175 20.4068Z" fill="#00ABE5"/>
<path d="M13.7173 20.4177C18.8814 20.4177 23.3187 21.7123 25.2095 23.558C25.8476 22.2387 26.1962 20.7894 26.1962 19.2657C26.1962 13.1833 20.6126 7.80078 13.7173 7.80078C6.82191 7.80078 1.23828 13.1833 1.23828 19.2719C1.23828 20.7956 1.58689 22.2449 2.22502 23.5642C4.11577 21.7184 8.55313 20.4239 13.7173 20.4239V20.4177Z" fill="#00ADE7"/>
<path d="M13.719 20.4378C18.8713 20.4378 23.2909 21.7199 25.1817 23.5471C25.8198 22.2402 26.1625 20.8032 26.1625 19.2981C26.1625 13.2714 20.5907 7.91992 13.719 7.91992C6.84725 7.91992 1.26953 13.2714 1.26953 19.2981C1.26953 20.8032 1.61814 22.2464 2.25036 23.5471C4.1352 21.7137 8.56075 20.4378 13.7131 20.4378H13.719Z" fill="#00B0E8"/>
<path d="M13.7128 20.4487C18.8473 20.4487 23.2611 21.7122 25.14 23.527C25.7781 22.2387 26.1208 20.8141 26.1208 19.3214C26.1208 13.3567 20.5667 8.03613 13.7128 8.03613C6.85878 8.03613 1.30469 13.3567 1.30469 19.3214C1.30469 20.8141 1.6533 22.2387 2.28552 23.527C4.17036 21.7184 8.57818 20.4487 13.7128 20.4487Z" fill="#00B2EA"/>
<path d="M13.7125 20.4609C18.8353 20.4609 23.2372 21.7121 25.1102 23.5083C25.7424 22.2324 26.091 20.8202 26.091 19.346C26.091 13.4432 20.5547 8.14746 13.7125 8.14746C6.88216 8.15365 1.33398 13.4432 1.33398 19.346C1.33398 20.8202 1.68259 22.2324 2.31481 23.5083C4.19375 21.7121 8.58975 20.4609 13.7125 20.4609Z" fill="#11B5EB"/>
<path d="M13.7122 20.4806C18.8232 20.4806 23.2073 21.7194 25.0804 23.497C25.7126 22.2335 26.0553 20.8399 26.0553 19.3781C26.0553 13.5311 20.5307 8.27246 13.7122 8.27246C6.89369 8.27246 1.36914 13.5311 1.36914 19.3781C1.36914 20.8399 1.71775 22.2335 2.34406 23.497C4.21709 21.7194 8.60127 20.4806 13.7122 20.4806Z" fill="#1EB7EC"/>
<path d="M13.7061 20.4925C18.7993 20.4925 23.1776 21.7189 25.0388 23.478C25.671 22.2268 26.0137 20.8456 26.0137 19.4024C26.0137 13.6173 20.5069 8.38965 13.7061 8.38965C6.90526 8.38965 1.39844 13.6173 1.39844 19.4024C1.39844 20.8456 1.74114 22.233 2.37336 23.478C4.24048 21.7189 8.61284 20.4925 13.712 20.4925H13.7061Z" fill="#27BAEE"/>
<path d="M13.7058 20.5057C18.7872 20.5057 23.1536 21.7197 25.0089 23.4602C25.6352 22.2214 25.9779 20.8588 25.9779 19.428C25.9779 13.7048 20.4829 8.50195 13.7058 8.50195C6.9286 8.50195 1.43359 13.7048 1.43359 19.428C1.43359 20.8588 1.77629 22.2276 2.4026 23.4602C4.26382 21.7197 8.62437 20.5057 13.7058 20.5057Z" fill="#2FBCEF"/>
<path d="M13.7075 20.5238C18.7711 20.5238 23.1258 21.7254 24.9811 23.4473C25.6074 22.2209 25.9501 20.8706 25.9501 19.4522C25.9501 13.791 20.4728 8.61914 13.7134 8.61914C6.95394 8.61914 1.46484 13.791 1.46484 19.4522C1.46484 20.8645 1.80754 22.2209 2.43385 23.4473C4.28916 21.7254 8.6438 20.5238 13.7075 20.5238Z" fill="#37BEF0"/>
<path d="M13.7054 20.5546C18.7631 20.5546 23.1119 21.75 24.9613 23.4595C25.5876 22.2455 25.9303 20.9015 25.9303 19.4954C25.9303 13.8714 20.4589 8.73047 13.7054 8.73047C6.95184 8.73047 1.48047 13.8652 1.48047 19.4954C1.48047 20.9015 1.82317 22.2455 2.44357 23.4595C4.29887 21.75 8.6417 20.5546 13.6995 20.5546H13.7054Z" fill="#45C0F0"/>
<path d="M13.7072 20.5929C18.759 20.5929 23.1019 21.7759 24.9453 23.4793C25.5717 22.2715 25.9084 20.9336 25.9084 19.54C25.9084 13.9531 20.443 8.83691 13.7013 8.83691C6.95955 8.83691 1.5 13.9469 1.5 19.5338C1.5 20.9274 1.8427 22.2653 2.4631 23.4731C4.3125 21.7759 8.65532 20.5867 13.7072 20.5867V20.5929Z" fill="#51C2F1"/>
<path d="M13.7051 20.6234C18.751 20.6234 23.082 21.8002 24.9314 23.485C25.5577 22.2834 25.8945 20.9579 25.8945 19.5704C25.8945 14.0207 20.4409 8.93555 13.7051 8.93555C6.96927 8.93555 1.51562 14.0207 1.51562 19.5704C1.51562 20.9579 1.85832 22.2834 2.47873 23.485C4.32812 21.8002 8.65913 20.6234 13.7051 20.6234Z" fill="#5BC4F1"/>
<path d="M13.705 20.6536C18.745 20.6536 23.0701 21.8242 24.9136 23.4966C25.534 22.3011 25.8767 20.988 25.8767 19.6068C25.8767 14.0942 20.429 9.04004 13.705 9.04004C6.98099 9.04004 1.52734 14.1004 1.52734 19.613C1.52734 20.9942 1.87004 22.3135 2.49045 23.5028C4.33984 21.8242 8.66494 20.6598 13.705 20.6598V20.6536Z" fill="#64C7F2"/>
<path d="M13.7068 20.6906C18.7409 20.6906 23.0601 21.855 24.9036 23.515C25.524 22.332 25.8667 21.025 25.8667 19.65C25.8667 14.1746 20.4249 9.15137 13.7127 9.15137C7.00052 9.15137 1.54688 14.1746 1.54688 19.6562C1.54688 21.025 1.88957 22.3382 2.50407 23.5212C4.34755 21.855 8.67265 20.6968 13.7009 20.6968L13.7068 20.6906Z" fill="#6DC9F3"/>
<path d="M13.7066 20.7217C18.729 20.7217 23.0481 21.8738 24.8857 23.5276C25.5061 22.3507 25.8429 21.05 25.8429 19.6935C25.8429 14.2553 20.407 9.25684 13.7007 9.25684C6.99446 9.25684 1.56445 14.2553 1.56445 19.6935C1.56445 21.0562 1.90715 22.3569 2.52165 23.5337C4.36513 21.88 8.67841 20.7279 13.7066 20.7279V20.7217Z" fill="#75CBF3"/>
<path d="M13.7065 20.7597C18.7229 20.7597 23.0362 21.9056 24.8737 23.5469C25.4942 22.3763 25.8309 21.088 25.8309 19.7377C25.8309 14.3304 20.4068 9.36914 13.7065 9.36914C7.00613 9.36914 1.58203 14.3304 1.58203 19.7377C1.58203 21.088 1.92473 22.3825 2.53923 23.5469C4.3768 21.9056 8.69008 20.7597 13.7065 20.7597Z" fill="#7DCDF4"/>
<path d="M13.7063 20.7899C18.7168 20.7899 23.0242 21.9295 24.8559 23.5585C25.4763 22.4003 25.8131 21.1181 25.8131 19.7741C25.8131 14.404 20.3949 9.47363 13.7063 9.47363C7.0178 9.47363 1.59961 14.4102 1.59961 19.7741C1.59961 21.1181 1.94231 22.4003 2.5568 23.5585C4.39438 21.9295 8.69584 20.7899 13.7063 20.7899Z" fill="#84D0F4"/>
<path d="M13.7062 20.821C18.7108 20.821 23.0064 21.9545 24.8381 23.5711C25.4525 22.419 25.7952 21.1431 25.7952 19.8114C25.7952 14.4785 20.383 9.5791 13.7062 9.5791C7.02952 9.5791 1.61133 14.4847 1.61133 19.8176C1.61133 21.1493 1.95403 22.4252 2.56261 23.5773C4.40019 21.9607 8.69574 20.8272 13.7003 20.8272L13.7062 20.821Z" fill="#8BD2F5"/>
<path d="M13.7061 20.8574C18.7048 20.8574 22.9944 21.9785 24.8261 23.5889C25.4406 22.443 25.7833 21.1794 25.7833 19.854C25.7833 14.5582 20.3769 9.68359 13.712 9.68359C7.0471 9.68359 1.62891 14.5644 1.62891 19.854C1.62891 21.1794 1.9657 22.443 2.58019 23.5889C4.41186 21.9785 8.70741 20.8574 13.7002 20.8574H13.7061Z" fill="#92D4F5"/>
<path d="M13.7059 20.8895C18.6987 20.8895 22.9825 22.0044 24.8082 23.6024C25.4227 22.4627 25.7595 21.2116 25.7595 19.8923C25.7595 14.6337 20.3649 9.79004 13.7 9.79004C7.03513 9.79004 1.64648 14.6399 1.64648 19.8985C1.64648 21.2116 1.98327 22.4689 2.59777 23.6086C4.42944 22.0106 8.71318 20.8957 13.7059 20.8957V20.8895Z" fill="#99D7F6"/>
<path d="M13.7058 20.9262C18.6868 20.9262 22.9705 22.0349 24.7962 23.6205C25.4107 22.4932 25.7475 21.2482 25.7475 19.9413C25.7475 14.7199 20.3589 9.90723 13.7058 9.90723C7.05271 9.90723 1.66406 14.7199 1.66406 19.9351C1.66406 21.242 2.00085 22.487 2.61535 23.6143C4.44111 22.0287 8.72485 20.92 13.7058 20.92V20.9262Z" fill="#9FD9F7"/>
<path d="M13.7057 20.9573C18.6807 20.9573 22.9585 22.0598 24.7784 23.6331C25.3929 22.512 25.7297 21.2732 25.7297 19.9787C25.7297 14.7944 20.3469 10.0127 13.7057 10.0127C7.06438 10.0127 1.68164 14.7944 1.68164 19.9787C1.68164 21.2794 2.01843 22.512 2.62702 23.6331C4.45278 22.0598 8.73061 20.9573 13.7057 20.9573Z" fill="#A5DBF7"/>
<path d="M13.7056 20.9897C18.6747 20.9897 22.9407 22.0861 24.7665 23.6469C25.375 22.532 25.7177 21.3056 25.7177 20.0173C25.7177 14.8702 20.3409 10.1133 13.7115 10.1133C7.08201 10.1133 1.69336 14.8764 1.69336 20.0173C1.69336 21.3056 2.03015 22.5382 2.63874 23.6469C4.4645 22.0861 8.73051 20.9897 13.6996 20.9897H13.7056Z" fill="#ABDDF8"/>
<path d="M13.7054 21.0267C18.6686 21.0267 22.9287 22.1107 24.7486 23.6653C25.3572 22.5628 25.694 21.3426 25.694 20.0605C25.694 14.9505 20.323 10.2246 13.7054 10.2246C7.08777 10.2246 1.71094 14.9505 1.71094 20.0605C1.71094 21.3426 2.04773 22.5628 2.65631 23.6653C4.47616 22.1107 8.74218 21.0267 13.7054 21.0267Z" fill="#B1DFF8"/>
<path d="M13.7053 21.0566C18.6626 21.0566 22.9168 22.1343 24.7307 23.6766C25.3393 22.5803 25.6761 21.3725 25.6761 20.1027C25.6761 15.0299 20.317 10.335 13.7053 10.335C7.09353 10.335 1.72852 15.0299 1.72852 20.0965C1.72852 21.3663 2.06531 22.5803 2.67389 23.6704C4.49374 22.1281 8.74794 21.0504 13.7053 21.0504V21.0566Z" fill="#B7E1F9"/>
<path d="M13.7051 21.0867C18.6565 21.0867 22.9048 22.1583 24.7187 23.6882C25.3273 22.5981 25.6641 21.3964 25.6641 20.1391C25.6641 15.1034 20.3109 10.4395 13.7051 10.4395C7.09929 10.4395 1.74609 15.1034 1.74609 20.1391C1.74609 21.4026 2.08288 22.6042 2.69147 23.6882C4.50541 22.1583 8.75961 21.0867 13.711 21.0867H13.7051Z" fill="#BCE4F9"/>
<path d="M13.7069 21.1241C18.6465 21.1241 22.8948 22.1832 24.7028 23.7069C25.3114 22.6292 25.6482 21.4338 25.6482 20.1826C25.6482 15.1841 20.3009 10.5449 13.7069 10.5449C7.11291 10.5449 1.76562 15.1841 1.76562 20.1764C1.76562 21.4276 2.10242 22.623 2.70509 23.7007C4.51903 22.1832 8.76732 21.1179 13.7069 21.1179V21.1241Z" fill="#C1E6FA"/>
<path d="M13.7068 21.1562C18.6405 21.1562 22.877 22.2092 24.6909 23.7205C25.2936 22.6489 25.6363 21.4659 25.6363 20.2209C25.6363 15.2596 20.2949 10.6514 13.7127 10.6514C7.13054 10.6514 1.77734 15.2596 1.77734 20.2209C1.77734 21.4659 2.11413 22.6489 2.71681 23.7205C4.53075 22.2154 8.76722 21.1562 13.7009 21.1562H13.7068Z" fill="#C7E8FA"/>
<path d="M13.7067 21.1932C18.6344 21.1932 22.865 22.24 24.673 23.7389C25.2757 22.6735 25.6125 21.4967 25.6125 20.2641C25.6125 15.34 20.2829 10.7627 13.7067 10.7627C7.13039 10.7627 1.79492 15.34 1.79492 20.2641C1.79492 21.4967 2.13171 22.6735 2.73439 23.7389C4.54242 22.24 8.77889 21.1994 13.7067 21.1932Z" fill="#CCEAFB"/>
<path d="M13.7065 21.2234C18.6284 21.2234 22.853 22.2639 24.6552 23.7505C25.2578 22.6913 25.5946 21.5269 25.5946 20.3005C25.5946 15.4135 20.271 10.8672 13.7065 10.8672C7.14206 10.8672 1.8125 15.4135 1.8125 20.3005C1.8125 21.5269 2.14929 22.6913 2.75197 23.7505C4.56 22.2639 8.78465 21.2234 13.7065 21.2234Z" fill="#D1ECFB"/>
<path d="M13.7064 21.2545C18.6223 21.2545 22.8411 22.2889 24.6432 23.763C25.2459 22.7163 25.5827 21.558 25.5827 20.344C25.5827 15.4942 20.2649 10.9727 13.7064 10.9727C7.14782 10.9727 1.83008 15.4942 1.83008 20.344C1.83008 21.558 2.16687 22.7163 2.76364 23.7692C4.56576 22.2951 8.79042 21.2669 13.7064 21.2607V21.2545Z" fill="#D6EEFB"/>
<path d="M13.7062 21.2918C18.6163 21.2918 22.8291 22.3138 24.6253 23.7756C25.228 22.735 25.5648 21.5892 25.5648 20.3813C25.5648 15.5687 20.253 11.0781 13.7062 11.0781C7.15949 11.0781 1.84766 15.5687 1.84766 20.3813C1.84766 21.5892 2.17854 22.735 2.78122 23.7756C4.58334 22.3138 8.80208 21.2918 13.7062 21.2857V21.2918Z" fill="#DBF0FC"/>
<path d="M13.7061 21.324C18.6103 21.324 22.8113 22.3398 24.6134 23.7891C25.2161 22.7548 25.547 21.6151 25.547 20.4197C25.547 15.6442 20.241 11.1846 13.7061 11.1846C7.17121 11.1846 1.85938 15.6504 1.85938 20.4259C1.85938 21.6213 2.19026 22.7609 2.79293 23.7953C4.59506 22.346 8.80198 21.3302 13.7061 21.324Z" fill="#E0F2FC"/>
<path d="M13.706 21.36C18.5983 21.36 22.7993 22.3696 24.5955 23.8066C25.1923 22.7846 25.5291 21.6511 25.5291 20.4619C25.5291 15.7236 20.235 11.2949 13.706 11.2949C7.17697 11.2949 1.87695 15.7236 1.87695 20.4619C1.87695 21.6511 2.20783 22.7846 2.81051 23.8066C4.60673 22.3634 8.81366 21.36 13.706 21.3538V21.36Z" fill="#E5F4FD"/>
<path d="M13.7058 21.3902C18.5922 21.3902 22.7874 22.3936 24.5836 23.8182C25.1803 22.8024 25.5171 21.6813 25.5171 20.5044C25.5171 15.7971 20.2289 11.3994 13.7117 11.3994C7.19455 11.3994 1.89453 15.8033 1.89453 20.5044C1.89453 21.6875 2.22541 22.8086 2.82218 23.8244C4.6184 22.3936 8.81351 21.3963 13.7058 21.3902Z" fill="#E9F6FD"/>
<path d="M13.7057 21.4223C18.5862 21.4223 22.7754 22.4133 24.5657 23.8317C25.1625 22.8221 25.4993 21.7072 25.4993 20.5427C25.4993 15.8787 20.217 11.5059 13.7057 11.5059C7.1944 11.5059 1.91211 15.8787 1.91211 20.5427C1.91211 21.7134 2.24299 22.8283 2.83976 23.8379C4.63007 22.4195 8.82518 21.4285 13.7057 21.4285V21.4223Z" fill="#EEF8FE"/>
<path d="M13.7056 21.4583C18.5802 21.4583 22.7635 22.4431 24.5479 23.8491C25.1446 22.8519 25.4814 21.7432 25.4814 20.585C25.4814 15.9581 20.205 11.6162 13.7056 11.6162C7.20612 11.6162 1.92383 15.9581 1.92383 20.585C1.92383 21.7494 2.25471 22.8519 2.85148 23.8491C4.64179 22.4431 8.83099 21.4583 13.7056 21.4583Z" fill="#F2FAFE"/>
<path d="M13.7054 21.4904C18.5741 21.4904 22.7515 22.469 24.5359 23.8627C25.1327 22.8717 25.4636 21.7753 25.4636 20.6233C25.4636 16.0274 20.199 11.7227 13.7054 11.7227C7.21188 11.7227 1.94141 16.0336 1.94141 20.6233C1.94141 21.7753 2.27229 22.8717 2.86906 23.8627C4.65936 22.469 8.83675 21.4904 13.7054 21.4904Z" fill="#F7FCFE"/>
<path d="M13.7053 21.5278C18.5681 21.5278 22.7336 22.5002 24.518 23.8814C25.1089 22.8966 25.4457 21.8127 25.4457 20.6668C25.4457 16.1081 20.187 11.8281 13.7053 11.8281C7.22355 11.8281 1.95898 16.1143 1.95898 20.6668C1.95898 21.8127 2.28987 22.8966 2.88073 23.8814C4.66513 22.5002 8.84251 21.5278 13.6994 21.5278H13.7053Z" fill="#FBFDFF"/>
<path d="M13.7051 21.5589C18.5561 21.5589 22.7217 22.5251 24.5061 23.894C25.0969 22.9154 25.4337 21.8376 25.4337 20.7041C25.4337 16.1826 20.181 11.9336 13.7111 11.9336C7.24113 11.9336 1.97656 16.1888 1.97656 20.7041C1.97656 21.8376 2.30744 22.9154 2.8983 23.894C4.6827 22.5189 8.85418 21.5589 13.7051 21.5589Z" fill="white"/>
</g>
<path d="M13.7047 17.0518C9.45645 17.0518 5.51541 17.8074 2.25977 19.0834C4.2096 23.673 8.5997 26.8691 13.7047 26.8691C18.8098 26.8691 23.194 23.673 25.1497 19.0834C21.8941 17.8074 17.9471 17.0518 13.6988 17.0518H13.7047Z" fill="#007BC7"/>
<path d="M71.25 17.5107H73.9621C74.1984 17.5355 74.3934 17.616 74.5588 17.8948C74.6888 18.1177 74.6711 18.861 74.6711 18.861V23.971C74.7065 24.4541 74.9252 25.2903 76.6032 25.3584H89.0408V23.556H78.4408C77.7731 23.5993 77.7022 23.2525 77.6845 22.8313V18.5513C77.6845 18.1301 77.6313 17.7399 77.2827 17.5169H90.4057V15.7207H71.2559V17.5169L71.25 17.5107Z" fill="#0062AC"/>
<path d="M81.2835 13.8502C85.0591 13.8502 88.1197 11.6947 88.1197 8.49248C88.1197 5.29024 85.0591 3.13477 81.2835 3.13477C77.5079 3.13477 74.4531 5.29643 74.4531 8.49248C74.4531 11.6885 77.5138 13.8502 81.2835 13.8502ZM81.2835 4.96196C83.3515 4.96196 85.0295 6.33081 85.0295 8.49248C85.0295 10.6541 83.3515 12.023 81.2835 12.023C79.2155 12.023 77.5433 10.6541 77.5433 8.49248C77.5433 6.33081 79.2155 4.96196 81.2835 4.96196Z" fill="#0062AC"/>
<path d="M30.4102 18.2426H38.564V25.9478H41.6956V18.2426H49.8554V16.3721H30.4102V18.2426Z" fill="#0062AC"/>
<path d="M40.1301 14.3601C44.0948 14.3601 47.3091 12.0931 47.3091 8.72985C47.3091 5.36657 44.0948 3.09961 40.1301 3.09961C36.1655 3.09961 32.9512 5.36657 32.9512 8.72985C32.9512 12.0931 36.1655 14.3601 40.1301 14.3601ZM40.1301 5.0321C42.2986 5.0321 44.0593 6.46908 44.0593 8.73605C44.0593 11.003 42.2986 12.4462 40.1301 12.4462C37.9617 12.4462 36.195 11.0092 36.195 8.73605C36.195 6.46289 37.9558 5.0321 40.1301 5.0321Z" fill="#0062AC"/>
<path d="M95.8366 4.22559V4.87594H91.5352V6.66598H93.5854C92.5042 7.49596 91.8247 8.72854 91.8247 10.2275C91.8247 13.0271 94.2058 14.9224 97.1424 14.9224C100.079 14.9224 102.46 13.0333 102.46 10.2275C102.46 8.72854 101.781 7.49596 100.699 6.66598H102.602V4.87594H98.5191V3.86634C98.5191 3.37083 98.3714 3.10449 97.7215 3.10449H95.5944C95.5944 3.10449 95.8425 3.25934 95.8425 4.22559H95.8366ZM94.5663 10.2275C94.5663 8.43123 95.7184 7.29775 97.1365 7.29775C98.5546 7.29775 99.7068 8.43123 99.7068 10.2275C99.7068 12.0237 98.5546 13.1572 97.1365 13.1572C95.7184 13.1572 94.5663 12.0237 94.5663 10.2275Z" fill="#0062AC"/>
<path d="M103.004 15.6094C99.3644 15.6094 96.416 17.6719 96.416 20.7255C96.416 23.7791 99.3644 25.8417 103.004 25.8417C106.644 25.8417 109.598 23.7791 109.598 20.7255C109.598 17.6719 106.644 15.6094 103.004 15.6094ZM103.004 24.064C101.054 24.064 99.4708 22.7695 99.4708 20.7255C99.4708 18.6815 101.054 17.3932 103.004 17.3932C104.954 17.3932 106.543 18.6877 106.543 20.7255C106.543 22.7633 104.96 24.064 103.004 24.064Z" fill="#0062AC"/>
<path d="M107.169 5.27181V7.84847H106.029V4.21266C106.029 3.73573 105.875 3.47559 105.195 3.47559H103.299C103.299 3.47559 103.553 3.71095 103.553 5.27181V14.6122H106.029V9.69425H107.169V14.6122H109.639V4.21266C109.639 3.73573 109.485 3.47559 108.806 3.47559H106.909C106.909 3.47559 107.163 3.73573 107.163 5.27181H107.169Z" fill="#0062AC"/>
<path d="M65.3459 25.3553H68.2766V4.22798C68.2766 3.74485 67.9693 3.47852 67.278 3.47852H65.0859C65.0859 3.47852 65.3459 3.68911 65.3459 5.29952V25.3553Z" fill="#0062AC"/>
<path d="M65.3533 16.071C65.3533 17.7619 62.8717 17.7248 62.8717 17.7248H55.6809C55.0074 17.7681 54.9424 17.4275 54.9246 17.0001V12.4538H61.1346C61.82 12.4538 61.9736 12.1874 61.9736 11.7043V4.90342C61.9736 4.41411 61.82 4.16016 61.1346 4.16016H51.5449V5.96877H58.9189V10.639H51.604C51.604 10.639 51.864 10.992 51.864 11.9335V18.146C51.8994 18.6291 52.1181 19.4714 53.802 19.5396H62.2159C62.2159 19.5396 65.5129 19.6449 65.5129 18.5548" fill="#0062AC"/>
</svg>
