<svg width="21" height="25" viewBox="0 0 21 25" fill="none" xmlns="http://www.w3.org/2000/svg">
<g clip-path="url(#clip0_175_701)">
<path d="M17.0029 13.2798C16.9729 10.1173 19.5879 8.59726 19.7004 8.52726C18.2329 6.37726 15.9429 6.07976 15.1329 6.04226C13.1854 5.84476 11.3304 7.18976 10.3454 7.18976C9.36041 7.18976 7.83291 6.07226 6.22041 6.10476C4.09291 6.13476 2.14041 7.33976 1.04541 9.23476C-1.15959 13.0598 0.477906 18.7298 2.63291 21.8323C3.68291 23.3523 4.93291 25.0573 6.57541 24.9948C8.16291 24.9348 8.76041 23.9723 10.6754 23.9723C12.5904 23.9723 13.1279 24.9948 14.8029 24.9698C16.5054 24.9348 17.5854 23.4148 18.6254 21.8973C19.8279 20.1348 20.3304 18.4298 20.3579 18.3373C20.3204 18.3248 17.0354 17.0623 17.0029 13.2748V13.2798Z" fill="#B1B2B2"/>
<path d="M13.8525 3.99C14.7275 2.935 15.3175 1.465 15.155 0C13.8975 0.0475 12.375 0.84 11.475 1.8925C10.665 2.8325 9.95254 4.3325 10.145 5.7625C11.545 5.8675 12.9825 5.0475 13.8525 3.99Z" fill="#B1B2B2"/>
</g>
<defs>
<clipPath id="clip0_175_701">
<rect width="20.3575" height="25" fill="white"/>
</clipPath>
</defs>
</svg>
