<svg width="25" height="25" viewBox="0 0 25 25" fill="none" xmlns="http://www.w3.org/2000/svg">
<g clip-path="url(#clip0_175_694)">
<path fill-rule="evenodd" clip-rule="evenodd" d="M24.5 12.785C24.5 11.8975 24.42 11.0475 24.2725 10.2275H12.5V15.0625H19.2275C18.9375 16.625 18.0575 17.95 16.7325 18.835V21.9725H20.7725C23.135 19.7975 24.5 16.5925 24.5 12.785Z" fill="#4E79BC"/>
<path fill-rule="evenodd" clip-rule="evenodd" d="M12.5001 25C15.8751 25 18.7051 23.88 20.7726 21.9725L16.7326 18.835C15.6126 19.585 14.1826 20.0275 12.5001 20.0275C9.24508 20.0275 6.48758 17.8275 5.50508 14.875H1.33008V18.1125C3.38758 22.1975 7.61508 25 12.5001 25Z" fill="#30A754"/>
<path fill-rule="evenodd" clip-rule="evenodd" d="M5.505 14.8752C5.255 14.1252 5.1125 13.3252 5.1125 12.5002C5.1125 11.6752 5.255 10.8752 5.505 10.1252V6.8877H1.33C0.4825 8.5752 0 10.4827 0 12.5002C0 14.5177 0.4825 16.4252 1.33 18.1127L5.505 14.8752Z" fill="#F9BC07"/>
<path fill-rule="evenodd" clip-rule="evenodd" d="M12.5001 4.9725C14.3351 4.9725 15.9826 5.6025 17.2776 6.8425L20.8626 3.2575C18.7001 1.2375 15.8701 0 12.5001 0C7.61258 0 3.38758 2.8 1.33008 6.8875L5.50508 10.125C6.48758 7.17 9.24258 4.9725 12.5001 4.9725Z" fill="#E84233"/>
</g>
<defs>
<clipPath id="clip0_175_694">
<rect width="24.5" height="25" fill="white"/>
</clipPath>
</defs>
</svg>
