<svg width="25" height="21" viewBox="0 0 25 21" fill="none" xmlns="http://www.w3.org/2000/svg">
<g clip-path="url(#clip0_175_710)">
<path fill-rule="evenodd" clip-rule="evenodd" d="M22.4554 5.72543C22.4554 5.50293 22.4504 5.28293 22.4404 5.06293C23.4429 4.33793 24.3129 3.43543 25.0004 2.40793C24.0804 2.81543 23.0929 3.09043 22.0554 3.21543C23.1129 2.58043 23.9279 1.57543 24.3104 0.37793C23.3179 0.96543 22.2204 1.39293 21.0529 1.62293C20.1154 0.62543 18.7829 0.00292969 17.3079 0.00292969C14.4754 0.00292969 12.1779 2.30043 12.1779 5.13293C12.1779 5.53543 12.2229 5.92543 12.3104 6.30293C8.05043 6.08293 4.27043 4.04293 1.74043 0.94043C1.29793 1.69793 1.04543 2.58043 1.04543 3.51793C1.04543 5.29793 1.95043 6.86793 3.32793 7.78793C2.48543 7.76293 1.69543 7.53043 1.00543 7.14543C1.00543 7.16793 1.00543 7.18793 1.00543 7.21043C1.00543 9.69293 2.77293 11.7679 5.12043 12.2379C4.69043 12.3554 4.23543 12.4179 3.76793 12.4179C3.43793 12.4179 3.11543 12.3854 2.80293 12.3254C3.45543 14.3629 5.35043 15.8454 7.59543 15.8879C5.84043 17.2629 3.62793 18.0829 1.22543 18.0829C0.81043 18.0829 0.40293 18.0579 0.00292969 18.0104C9.48043 24.0854 23.5279 17.9829 22.4579 5.72043L22.4554 5.72543Z" fill="#3D9AD5"/>
</g>
<defs>
<clipPath id="clip0_175_710">
<rect width="25" height="20.39" fill="white"/>
</clipPath>
</defs>
</svg>
